# xmcd CD database file
#
# Track frame offsets:
#	150
#	26797
#	53842
#	74889
#	102644
#	131893
#	153057
#	178334
#	198630
#	216412
#	233303
#	252260
#	274834
#
# Disc length: 3884 seconds
#
# Revision: 0
# Processed by: cddbd v1.5.2PL0 Copyright (c) Steve Scherf et al.
# Submitted via: CDex 1.70beta2
#
DISCID=cc0f2a0d
DTITLE=Arias y Navia - Influencias
DYEAR=2004
DGENRE=New Age
TTITLE0=Georgy Porgy
TTITLE1=Colibrí
TTITLE2=Manhattan burn
TTITLE3=Talvez
TTITLE4=I-e-o
TTITLE5=Sol y chelo
TTITLE6=Flamenco andino
TTITLE7=Natalia
TTITLE8=Porque estas triste
TTITLE9=Fiesta en Chayanta
TTITLE10=Frio folk funk
TTITLE11=Mientras estas ausente
TTITLE12=I-e-o (radio edit)
EXTD=YEAR: 2004
EXTT0=
EXTT1=
EXTT2=
EXTT3=
EXTT4=
EXTT5=
EXTT6=
EXTT7=
EXTT8=
EXTT9=
EXTT10=
EXTT11=
EXTT12=
PLAYORDER=
